<svg width="213" height="38" viewBox="0 0 213 38" fill="none" xmlns="http://www.w3.org/2000/svg">
<path d="M10.14 10.3756C13.624 10.3756 16.692 12.0916 18.356 14.6396L14.508 18.1756C13.312 16.6676 11.856 15.8876 10.14 15.8876C8.84 15.8876 7.748 16.6676 7.748 18.0716C7.748 19.1636 8.58 19.9956 10.244 20.6196L12.116 21.2956L14.352 22.0756C14.768 22.2316 15.392 22.5956 16.224 23.0636C17.108 23.5316 17.732 23.9476 18.096 24.4156C18.876 25.2996 19.708 26.8596 19.708 28.6796C19.708 31.1236 18.824 33.1516 17.108 34.8676C15.392 36.5836 13.156 37.4156 10.4 37.4156C7.904 37.4156 5.72 36.6876 3.9 35.2836C2.08 33.8796 0.78 32.2156 0 30.3436L5.148 27.5876C6.188 30.4476 7.956 31.9036 10.4 31.9036C12.532 31.9036 13.624 30.9676 13.624 29.0956C13.624 28.2636 13.208 27.5876 12.22 27.1196C11.752 26.8596 11.232 26.6516 10.764 26.4956C9.88 26.0796 8.06 25.5076 7.072 25.0916C3.744 23.6876 1.768 21.7636 1.768 18.0196C1.768 15.8876 2.548 14.1196 4.108 12.6116C5.668 11.1036 7.696 10.3756 10.14 10.3756ZM30.2668 18.9036L24.8068 17.6556C25.6388 13.2876 29.5388 10.3756 34.7908 10.3756C42.1228 10.3756 45.8148 14.0156 45.8148 21.3476V36.9996H40.5108L39.8348 33.6716C37.8068 36.1676 35.1028 37.4156 31.7748 37.4156C27.1468 37.4156 23.8188 34.5036 23.8188 29.4596C23.8188 24.2596 28.3428 20.8796 34.9988 20.8796H39.3668V19.7356C39.3668 17.1876 37.8588 15.8876 34.7908 15.8876C32.4508 15.8876 30.9428 16.8756 30.2668 18.9036ZM30.5788 29.3556C30.5788 30.7596 31.5668 31.9036 33.2828 31.9036C34.8948 31.9036 36.2988 31.3836 37.4948 30.3956C38.7428 29.4076 39.3668 28.1076 39.3668 26.4956V25.9756H35.0508C32.0868 25.9756 30.5788 27.1196 30.5788 29.3556ZM52.5107 36.9996V0.183594H58.9587V21.0876L67.4867 10.7916H75.4427L64.9387 22.8556L76.1187 36.9996H68.2147L58.9587 24.6236V36.9996H52.5107ZM87.9877 10.3756C91.4717 10.3756 94.5397 12.0916 96.2037 14.6396L92.3557 18.1756C91.1597 16.6676 89.7037 15.8876 87.9877 15.8876C86.6877 15.8876 85.5957 16.6676 85.5957 18.0716C85.5957 19.1636 86.4277 19.9956 88.0917 20.6196L89.9637 21.2956L92.1997 22.0756C92.6157 22.2316 93.2397 22.5956 94.0717 23.0636C94.9557 23.5316 95.5797 23.9476 95.9437 24.4156C96.7237 25.2996 97.5557 26.8596 97.5557 28.6796C97.5557 31.1236 96.6717 33.1516 94.9557 34.8676C93.2397 36.5836 91.0037 37.4156 88.2477 37.4156C85.7517 37.4156 83.5677 36.6876 81.7477 35.2836C79.9277 33.8796 78.6277 32.2156 77.8477 30.3436L82.9957 27.5876C84.0357 30.4476 85.8037 31.9036 88.2477 31.9036C90.3797 31.9036 91.4717 30.9676 91.4717 29.0956C91.4717 28.2636 91.0557 27.5876 90.0677 27.1196C89.5997 26.8596 89.0797 26.6516 88.6117 26.4956C87.7277 26.0796 85.9077 25.5076 84.9197 25.0916C81.5917 23.6876 79.6157 21.7636 79.6157 18.0196C79.6157 15.8876 80.3957 14.1196 81.9557 12.6116C83.5157 11.1036 85.5437 10.3756 87.9877 10.3756ZM103.14 36.9996V0.183594H109.588V15.0036C111.512 11.9356 114.32 10.3756 117.908 10.3756C122.952 10.3756 126.072 13.0796 126.072 18.2796V36.9996H119.624V20.5676C119.624 17.4476 118.324 15.8876 115.724 15.8876C112.396 15.8876 109.588 19.3196 109.588 25.9236V36.9996H103.14ZM138.126 18.9036L132.666 17.6556C133.498 13.2876 137.398 10.3756 142.65 10.3756C149.982 10.3756 153.674 14.0156 153.674 21.3476V36.9996H148.37L147.694 33.6716C145.666 36.1676 142.962 37.4156 139.634 37.4156C135.006 37.4156 131.678 34.5036 131.678 29.4596C131.678 24.2596 136.202 20.8796 142.858 20.8796H147.226V19.7356C147.226 17.1876 145.718 15.8876 142.65 15.8876C140.31 15.8876 138.802 16.8756 138.126 18.9036ZM138.438 29.3556C138.438 30.7596 139.426 31.9036 141.142 31.9036C142.754 31.9036 144.158 31.3836 145.354 30.3956C146.602 29.4076 147.226 28.1076 147.226 26.4956V25.9756H142.91C139.946 25.9756 138.438 27.1196 138.438 29.3556ZM182.006 26.8076V36.9996H175.558V19.5276C175.558 17.0836 174.466 15.8876 172.334 15.8876C169.006 15.8876 166.666 19.8916 166.666 27.3796V36.9996H160.218V10.7916H166.666V15.0036C168.694 11.9356 171.242 10.3756 174.206 10.3756C177.586 10.3756 180.446 12.1956 181.538 15.7836C183.566 12.1956 186.218 10.3756 189.546 10.3756C194.382 10.3756 197.346 13.3916 197.346 18.4356V36.9996H190.898V19.5276C190.898 17.0836 189.806 15.8876 187.674 15.8876C184.346 15.8876 182.006 19.7356 182.006 26.8076ZM204.934 36.0636C203.27 34.3996 203.27 31.4876 204.934 29.8236C206.598 28.1596 209.51 28.1596 211.174 29.8236C212.838 31.4876 212.838 34.3996 211.174 36.0636C209.51 37.7276 206.598 37.7276 204.934 36.0636Z" fill="#83878D"/>
</svg>
