<svg width="214" height="39" viewBox="0 0 214 39" fill="none" xmlns="http://www.w3.org/2000/svg">
<path d="M11.0111 11.3756C14.4951 11.3756 17.5631 13.0916 19.2271 15.6396L15.3791 19.1756C14.1831 17.6676 12.7271 16.8876 11.0111 16.8876C9.71109 16.8876 8.61909 17.6676 8.61909 19.0716C8.61909 20.1636 9.45109 20.9956 11.1151 21.6196L12.9871 22.2956L15.2231 23.0756C15.6391 23.2316 16.2631 23.5956 17.0951 24.0636C17.9791 24.5316 18.6031 24.9476 18.9671 25.4156C19.7471 26.2996 20.5791 27.8596 20.5791 29.6796C20.5791 32.1236 19.6951 34.1516 17.9791 35.8676C16.2631 37.5836 14.0271 38.4156 11.2711 38.4156C8.77509 38.4156 6.59109 37.6876 4.77109 36.2836C2.95109 34.8796 1.65109 33.2156 0.871094 31.3436L6.01909 28.5876C7.05909 31.4476 8.82709 32.9036 11.2711 32.9036C13.4031 32.9036 14.4951 31.9676 14.4951 30.0956C14.4951 29.2636 14.0791 28.5876 13.0911 28.1196C12.6231 27.8596 12.1031 27.6516 11.6351 27.4956C10.7511 27.0796 8.93109 26.5076 7.94309 26.0916C4.61509 24.6876 2.63909 22.7636 2.63909 19.0196C2.63909 16.8876 3.41909 15.1196 4.97909 13.6116C6.53909 12.1036 8.56709 11.3756 11.0111 11.3756ZM31.1379 19.9036L25.6779 18.6556C26.5099 14.2876 30.4099 11.3756 35.6619 11.3756C42.9939 11.3756 46.6859 15.0156 46.6859 22.3476V37.9996H41.3819L40.7059 34.6716C38.6779 37.1676 35.9739 38.4156 32.6459 38.4156C28.0179 38.4156 24.6899 35.5036 24.6899 30.4596C24.6899 25.2596 29.2139 21.8796 35.8699 21.8796H40.2379V20.7356C40.2379 18.1876 38.7299 16.8876 35.6619 16.8876C33.3219 16.8876 31.8139 17.8756 31.1379 19.9036ZM31.4499 30.3556C31.4499 31.7596 32.4379 32.9036 34.1539 32.9036C35.7659 32.9036 37.1699 32.3836 38.3659 31.3956C39.6139 30.4076 40.2379 29.1076 40.2379 27.4956V26.9756H35.9219C32.9579 26.9756 31.4499 28.1196 31.4499 30.3556ZM53.3818 37.9996V1.18359H59.8298V22.0876L68.3577 11.7916H76.3138L65.8098 23.8556L76.9898 37.9996H69.0858L59.8298 25.6236V37.9996H53.3818ZM88.8587 11.3756C92.3427 11.3756 95.4108 13.0916 97.0748 15.6396L93.2268 19.1756C92.0308 17.6676 90.5747 16.8876 88.8587 16.8876C87.5587 16.8876 86.4668 17.6676 86.4668 19.0716C86.4668 20.1636 87.2988 20.9956 88.9628 21.6196L90.8347 22.2956L93.0707 23.0756C93.4867 23.2316 94.1107 23.5956 94.9427 24.0636C95.8267 24.5316 96.4508 24.9476 96.8148 25.4156C97.5948 26.2996 98.4268 27.8596 98.4268 29.6796C98.4268 32.1236 97.5428 34.1516 95.8268 35.8676C94.1108 37.5836 91.8748 38.4156 89.1188 38.4156C86.6228 38.4156 84.4388 37.6876 82.6188 36.2836C80.7988 34.8796 79.4988 33.2156 78.7188 31.3436L83.8668 28.5876C84.9068 31.4476 86.6748 32.9036 89.1188 32.9036C91.2508 32.9036 92.3428 31.9676 92.3428 30.0956C92.3428 29.2636 91.9268 28.5876 90.9388 28.1196C90.4708 27.8596 89.9507 27.6516 89.4827 27.4956C88.5987 27.0796 86.7787 26.5076 85.7907 26.0916C82.4627 24.6876 80.4867 22.7636 80.4867 19.0196C80.4867 16.8876 81.2668 15.1196 82.8268 13.6116C84.3868 12.1036 86.4147 11.3756 88.8587 11.3756ZM104.011 37.9996V1.18359H110.459V16.0036C112.383 12.9356 115.191 11.3756 118.779 11.3756C123.823 11.3756 126.943 14.0796 126.943 19.2796V37.9996H120.495V21.5676C120.495 18.4476 119.195 16.8876 116.595 16.8876C113.267 16.8876 110.459 20.3196 110.459 26.9236V37.9996H104.011ZM138.997 19.9036L133.537 18.6556C134.369 14.2876 138.269 11.3756 143.521 11.3756C150.853 11.3756 154.545 15.0156 154.545 22.3476V37.9996H149.241L148.565 34.6716C146.537 37.1676 143.833 38.4156 140.505 38.4156C135.877 38.4156 132.549 35.5036 132.549 30.4596C132.549 25.2596 137.073 21.8796 143.729 21.8796H148.097V20.7356C148.097 18.1876 146.589 16.8876 143.521 16.8876C141.181 16.8876 139.673 17.8756 138.997 19.9036ZM139.309 30.3556C139.309 31.7596 140.297 32.9036 142.013 32.9036C143.625 32.9036 145.029 32.3836 146.225 31.3956C147.473 30.4076 148.097 29.1076 148.097 27.4956V26.9756H143.781C140.817 26.9756 139.309 28.1196 139.309 30.3556ZM182.877 27.8076V37.9996H176.429V20.5276C176.429 18.0836 175.337 16.8876 173.205 16.8876C169.877 16.8876 167.537 20.8916 167.537 28.3796V37.9996H161.089V11.7916H167.537V16.0036C169.565 12.9356 172.113 11.3756 175.077 11.3756C178.457 11.3756 181.317 13.1956 182.409 16.7836C184.437 13.1956 187.089 11.3756 190.417 11.3756C195.253 11.3756 198.217 14.3916 198.217 19.4356V37.9996H191.769V20.5276C191.769 18.0836 190.677 16.8876 188.545 16.8876C185.217 16.8876 182.877 20.7356 182.877 27.8076ZM205.806 37.0636C204.142 35.3996 204.142 32.4876 205.806 30.8236C207.47 29.1596 210.382 29.1596 212.046 30.8236C213.71 32.4876 213.71 35.3996 212.046 37.0636C210.382 38.7276 207.47 38.7276 205.806 37.0636Z" stroke="#83878D"/>
</svg>
