<svg width="94" height="50" viewBox="0 0 94 50" fill="none" xmlns="http://www.w3.org/2000/svg">
<path d="M39.0757 29.9021C39.0757 17.3444 43.2308 10.5115 49.1404 10.5115C52.9261 10.5115 54.8652 12.6353 54.8652 16.9751V48H66.3149V15.036C66.3149 6.0794 61.0517 0.723908 52.4645 0.723908C46.5549 0.723908 41.8458 3.95567 38.2447 10.3269C36.3056 3.95567 31.2272 0.723908 25.2253 0.723908C19.9621 0.723908 15.4377 3.49399 11.8366 8.94182V1.4626H0.38689V48H11.8366V30.9178C11.8366 17.6214 15.9917 10.5115 21.9012 10.5115C25.687 10.5115 27.626 12.6353 27.626 16.9751V48H39.0757V29.9021ZM79.7902 46.3379C82.7449 49.2927 87.9158 49.2927 90.8705 46.3379C93.8253 43.3832 93.8253 38.2124 90.8705 35.2576C87.9158 32.3029 82.7449 32.3029 79.7902 35.2576C76.8354 38.2124 76.8354 43.3832 79.7902 46.3379Z" fill="white"/>
</svg>
